<?xml version="1.0" encoding="utf-8"?>
<!-- Generator: Adobe Illustrator 27.2.0, SVG Export Plug-In . SVG Version: 6.00 Build 0)  -->
<svg version="1.1" id="Layer_1" xmlns="http://www.w3.org/2000/svg" xmlns:xlink="http://www.w3.org/1999/xlink" x="0px" y="0px"
	 viewBox="0 0 24 24" style="enable-background:new 0 0 24 24;" xml:space="preserve">
<style type="text/css">
	.st0{fill:#3ECBFF;}
	.st1{fill:#80DDFF;}
	.st2{fill:#00BAFF;}
	.st3{fill:#0094CC;}
	.st4{fill:none;}
	.st5{fill:url(#SVGID_1_);}
	.st6{fill:#FFFFFF;}
	.st7{fill:url(#SVGID_00000062192920924477780420000012369223047998723754_); }
	.st8{fill:#5CC5E6;}
	.st9{opacity:0.5;fill:#FFFFFF; mix-blend-mode: overlay;}
	.st10{opacity:0.5;fill:#BFBFBF; mix-blend-mode: overlay;}
	.st11{opacity:0.5; mix-blend-mode: overlay;}
	.st12{opacity:0.5;fill:#7F7F7F; mix-blend-mode: overlay;}
	.st13{opacity:0.5;fill:#3F3F3F; mix-blend-mode: overlay;}
</style>
<g>
	<path class="st0" d="M6.7,3.5c0.6,0.9,1.5,1.4,2.5,1.4h5.3c1,0,2-0.5,2.5-1.4l1.1-1.6H5.7L6.7,3.5z"/>
	<path class="st1" d="M2,14.5c1-0.2,1.9-1,2.2-2l1.6-4.8C6.1,6.8,6,5.9,5.5,5.1l-1.3-2L0.4,14.9L2,14.5z"/>
	<path class="st2" d="M18.4,5.1c-0.5,0.8-0.6,1.7-0.3,2.6l1.6,4.8c0.3,1,1.2,1.8,2.2,2l1.7,0.4L19.8,3.1L18.4,5.1z"/>
	<path class="st2" d="M9.7,19.4L6,16.7c-0.7-0.5-1.6-0.7-2.4-0.5L1,16.8l9.9,7.2v-2.2C10.9,20.8,10.4,19.9,9.7,19.4z"/>
	<path class="st3" d="M17.8,16.7l-3.7,2.7c-0.8,0.6-1.2,1.5-1.2,2.4V24l9.9-7.2l-2.6-0.6C19.4,16,18.5,16.2,17.8,16.7z"/>
</g>
<rect class="st4" width="24" height="24"/>
<linearGradient id="SVGID_1_" gradientUnits="userSpaceOnUse" x1="6.9454" y1="6.6361" x2="16.8544" y2="16.545">
	<stop  offset="0" style="stop-color:#FDE59C"/>
	<stop  offset="0.333" style="stop-color:#B6A05F"/>
	<stop  offset="0.666" style="stop-color:#925829"/>
	<stop  offset="1" style="stop-color:#FEDC45"/>
</linearGradient>
<path class="st5" d="M16.3,6.1H7.5l-2.7,8.3l7.1,5.2l7.1-5.2L16.3,6.1z M5.1,14.3l2.6-8h8.4l2.6,8l-6.8,4.9L5.1,14.3z"/>
<path class="st6" d="M7.5,5.9c0.1,0,0.2,0.1,0.2,0.2S7.6,6.3,7.5,6.3S7.3,6.2,7.3,6.1S7.4,5.9,7.5,5.9z M16.3,5.9
	c0.1,0,0.2,0.1,0.2,0.2s-0.1,0.2-0.2,0.2s-0.2-0.1-0.2-0.2S16.2,5.9,16.3,5.9z M19,14.2c0.1,0,0.2,0.1,0.2,0.2s-0.1,0.2-0.2,0.2
	s-0.2-0.1-0.2-0.2S18.9,14.2,19,14.2z M4.8,14.2c0.1,0,0.2,0.1,0.2,0.2s-0.1,0.2-0.2,0.2s-0.2-0.1-0.2-0.2S4.7,14.2,4.8,14.2z
	 M11.9,19.4c0.1,0,0.2,0.1,0.2,0.2s-0.1,0.2-0.2,0.2s-0.2-0.1-0.2-0.2S11.8,19.4,11.9,19.4z"/>
<linearGradient id="SVGID_00000069395630841015540480000015431050049952026766_" gradientUnits="userSpaceOnUse" x1="3.875" y1="3.425" x2="20.025" y2="19.575">
	<stop  offset="6.147654e-04" style="stop-color:#FFFFFF"/>
	<stop  offset="0.333" style="stop-color:#9F9F9F"/>
	<stop  offset="0.666" style="stop-color:#0D0D0D"/>
	<stop  offset="1" style="stop-color:#D6D6D6"/>
</linearGradient>
<path style="fill:url(#SVGID_00000069395630841015540480000015431050049952026766_); mix-blend-mode: overlay;" d="M6.7,3.5c0.6,0.9,1.5,1.4,2.5,1.4h5.3
	c1,0,2-0.5,2.5-1.4l1.1-1.6H5.7L6.7,3.5z M2,14.5c1-0.2,1.9-1,2.2-2l1.6-4.8C6.1,6.8,6,5.9,5.5,5.1l-1.3-2L0.4,14.9L2,14.5z
	 M18.4,5.1c-0.5,0.8-0.6,1.7-0.3,2.6l1.6,4.8c0.3,1,1.2,1.8,2.2,2l1.7,0.4L19.8,3.1L18.4,5.1z M9.7,19.4L6,16.7
	c-0.7-0.5-1.6-0.7-2.4-0.5L1,16.8l9.9,7.2v-2.2C10.9,20.8,10.4,19.9,9.7,19.4z M17.8,16.7l-3.7,2.7c-0.8,0.6-1.2,1.5-1.2,2.4V24
	l9.9-7.2l-2.6-0.6C19.4,16,18.5,16.2,17.8,16.7z"/>
<g>
	<polygon class="st8" points="11.9,18.3 17.8,14 15.6,7.1 8.2,7.1 6,14 	"/>
	<polygon class="st9" points="15.6,7.1 14.1,9.1 9.7,9.1 8.2,7.1 	"/>
	<polygon class="st10" points="8.2,7.1 9.7,9.1 8.3,13.3 6,14 	"/>
	<polygon class="st11" points="15.5,13.3 17.8,14 11.9,18.3 11.9,15.9 	"/>
	<polygon class="st12" points="15.6,7.1 14.1,9.1 15.5,13.3 17.8,14 	"/>
	<polygon class="st13" points="6,14 8.3,13.3 11.9,15.9 11.9,18.3 	"/>
	<g>
		<polygon class="st10" points="15.6,7.1 12,8.1 14.8,8.1 		"/>
		<polygon class="st11" points="14.8,8.1 12,8.1 14.1,9.1 		"/>
		<polygon class="st11" points="8.2,7.1 12,8.1 9,8.1 		"/>
		<polygon class="st10" points="12,8.1 9.7,9.1 9,8.1 		"/>
		<polygon class="st9" points="9.7,9.1 12,8.1 14.1,9.1 		"/>
	</g>
	<g>
		<polygon class="st10" points="8.2,7.1 8.1,10.8 9,8.1 		"/>
		<polygon class="st11" points="9,8.1 8.1,10.8 9.7,9.1 		"/>
		<polygon class="st11" points="6,14 8.1,10.8 7.2,13.6 		"/>
		<polygon class="st10" points="8.1,10.8 8.3,13.3 7.2,13.6 		"/>
		<polygon class="st9" points="8.3,13.3 8.1,10.8 9.7,9.1 		"/>
	</g>
	<g>
		<polygon class="st10" points="6,14 9.4,15.3 7.2,13.6 		"/>
		<polygon class="st11" points="7.2,13.6 9.4,15.3 8.3,13.3 		"/>
		<polygon class="st11" points="11.9,18.3 9.4,15.3 11.9,17.1 		"/>
		<polygon class="st10" points="9.4,15.3 11.9,15.9 11.9,17.1 		"/>
		<polygon class="st9" points="11.9,15.9 9.4,15.3 8.3,13.3 		"/>
	</g>
	<g>
		<polygon class="st10" points="11.9,18.3 14.2,15.4 11.9,17.1 		"/>
		<polygon class="st11" points="11.9,17.1 14.2,15.4 11.9,15.9 		"/>
		<polygon class="st11" points="17.8,14 14.2,15.4 16.6,13.6 		"/>
		<polygon class="st10" points="14.2,15.4 15.5,13.3 16.6,13.6 		"/>
		<polygon class="st9" points="15.5,13.3 14.2,15.4 11.9,15.9 		"/>
	</g>
	<g>
		<polygon class="st10" points="17.8,14 15.8,10.9 16.6,13.6 		"/>
		<polygon class="st11" points="16.6,13.6 15.8,10.9 15.5,13.3 		"/>
		<polygon class="st11" points="15.6,7.1 15.8,10.9 14.8,8.1 		"/>
		<polygon class="st10" points="15.8,10.9 14.1,9.1 14.8,8.1 		"/>
		<polygon class="st9" points="14.1,9.1 15.8,10.9 15.5,13.3 		"/>
	</g>
	<g>
		<polygon class="st10" points="8.2,7.1 8.1,10.8 9,8.1 		"/>
		<polygon class="st11" points="9,8.1 8.1,10.8 9.7,9.1 		"/>
		<polygon class="st11" points="6,14 8.1,10.8 7.2,13.6 		"/>
		<polygon class="st10" points="8.1,10.8 8.3,13.3 7.2,13.6 		"/>
		<polygon class="st9" points="8.3,13.3 8.1,10.8 9.7,9.1 		"/>
	</g>
	<g>
		<polygon class="st10" points="15.6,7.1 12,8.1 14.8,8.1 		"/>
		<polygon class="st11" points="14.8,8.1 12,8.1 14.1,9.1 		"/>
		<polygon class="st11" points="8.2,7.1 12,8.1 9,8.1 		"/>
		<polygon class="st10" points="12,8.1 9.7,9.1 9,8.1 		"/>
		<polygon class="st9" points="9.7,9.1 12,8.1 14.1,9.1 		"/>
	</g>
	<g>
		<polygon class="st10" points="17.8,14 15.8,10.9 16.6,13.6 		"/>
		<polygon class="st11" points="16.6,13.6 15.8,10.9 15.5,13.3 		"/>
		<polygon class="st11" points="15.6,7.1 15.8,10.9 14.8,8.1 		"/>
		<polygon class="st10" points="15.8,10.9 14.1,9.1 14.8,8.1 		"/>
		<polygon class="st9" points="14.1,9.1 15.8,10.9 15.5,13.3 		"/>
	</g>
	<g>
		<polygon class="st10" points="11.9,18.3 14.2,15.4 11.9,17.1 		"/>
		<polygon class="st11" points="11.9,17.1 14.2,15.4 11.9,15.9 		"/>
		<polygon class="st11" points="17.8,14 14.2,15.4 16.6,13.6 		"/>
		<polygon class="st10" points="14.2,15.4 15.5,13.3 16.6,13.6 		"/>
		<polygon class="st9" points="15.5,13.3 14.2,15.4 11.9,15.9 		"/>
	</g>
	<g>
		<polygon class="st10" points="6,14 9.4,15.3 7.2,13.6 		"/>
		<polygon class="st11" points="7.2,13.6 9.4,15.3 8.3,13.3 		"/>
		<polygon class="st11" points="11.9,18.3 9.4,15.3 11.9,17.1 		"/>
		<polygon class="st10" points="9.4,15.3 11.9,15.9 11.9,17.1 		"/>
		<polygon class="st9" points="11.9,15.9 9.4,15.3 8.3,13.3 		"/>
	</g>
	<g>
		<polygon class="st11" points="14.1,9.1 11.9,12.1 11.9,9.1 		"/>
		<polygon class="st9" points="9.7,9.1 11.9,12.1 11.9,9.1 		"/>
		<polygon class="st11" points="14.1,9.1 11.9,12.1 11.9,10.1 		"/>
		<polygon class="st11" points="14.1,9.1 11.9,10.1 11.9,11.1 		"/>
		<polygon class="st9" points="9.7,9.1 11.9,12.1 11.9,10.1 		"/>
		<polygon class="st6" points="9.7,9.1 11.9,12.1 11.9,11.1 		"/>
	</g>
	<g>
		<polygon class="st11" points="9.7,9.1 11.9,12.1 9,11.2 		"/>
		<polygon class="st9" points="8.3,13.3 11.9,12.1 9,11.2 		"/>
		<polygon class="st11" points="9.7,9.1 11.9,12.1 10,11.5 		"/>
		<polygon class="st11" points="9.7,9.1 10,11.5 10.9,11.8 		"/>
		<polygon class="st9" points="8.3,13.3 11.9,12.1 10,11.5 		"/>
		<polygon class="st6" points="8.3,13.3 11.9,12.1 10.9,11.8 		"/>
	</g>
	<g>
		<polygon class="st11" points="8.3,13.3 11.9,12.1 10.1,14.6 		"/>
		<polygon class="st9" points="11.9,15.9 11.9,12.1 10.1,14.6 		"/>
		<polygon class="st11" points="8.3,13.3 11.9,12.1 10.7,13.7 		"/>
		<polygon class="st11" points="8.3,13.3 10.7,13.7 11.3,12.9 		"/>
		<polygon class="st9" points="11.9,15.9 11.9,12.1 10.7,13.7 		"/>
		<polygon class="st6" points="11.9,15.9 11.9,12.1 11.3,12.9 		"/>
	</g>
	<g>
		<polygon class="st11" points="11.9,15.9 11.9,12.1 13.7,14.6 		"/>
		<polygon class="st9" points="15.5,13.3 11.9,12.1 13.7,14.6 		"/>
		<polygon class="st11" points="11.9,15.9 11.9,12.1 13.1,13.7 		"/>
		<polygon class="st11" points="11.9,15.9 13.1,13.7 12.5,12.9 		"/>
		<polygon class="st9" points="15.5,13.3 11.9,12.1 13.1,13.7 		"/>
		<polygon class="st6" points="15.5,13.3 11.9,12.1 12.5,12.9 		"/>
	</g>
	<g>
		<polygon class="st11" points="15.5,13.3 11.9,12.1 14.8,11.2 		"/>
		<polygon class="st9" points="14.1,9.1 11.9,12.1 14.8,11.2 		"/>
		<polygon class="st11" points="15.5,13.3 11.9,12.1 13.8,11.5 		"/>
		<polygon class="st11" points="15.5,13.3 13.8,11.5 12.9,11.8 		"/>
		<polygon class="st9" points="14.1,9.1 11.9,12.1 13.8,11.5 		"/>
		<polygon class="st6" points="14.1,9.1 11.9,12.1 12.9,11.8 		"/>
	</g>
</g>
</svg>
