<?xml version="1.0" encoding="utf-8"?>
<!-- Generator: Adobe Illustrator 27.1.1, SVG Export Plug-In . SVG Version: 6.00 Build 0)  -->
<svg version="1.1" id="Layer_1" xmlns="http://www.w3.org/2000/svg" xmlns:xlink="http://www.w3.org/1999/xlink" x="0px" y="0px"
	 viewBox="0 0 24 24" style="enable-background:new 0 0 24 24;" xml:space="preserve">
<style type="text/css">
	.trn-rating-st0{opacity:0.25;fill:#FFFFFF;enable-background:new    ;}
	.trn-rating-st1{fill:#5EE790;}
	.trn-rating-st2{fill:#23E564;}
	.trn-rating-st3{fill:#44A564;}
	.trn-rating-st4{fill:#FFFFFF;}
	.trn-rating-st5{fill:#BFBFBF;}
	.trn-rating-st6{opacity:0.25;enable-background:new    ;}
	.trn-rating-st7{fill:none;}
</style>
<g>
	<path class="trn-rating-st0" d="M6.7,3.5c0.6,0.9,1.5,1.4,2.5,1.4h5.3c1,0,2-0.5,2.5-1.4l1.1-1.6H5.7L6.7,3.5z"/>
	<path class="trn-rating-st1" d="M2,14.5c1-0.2,1.9-1,2.2-2l1.6-4.8C6.1,6.8,6,5.9,5.5,5.1l-1.3-2L0.4,14.9L2,14.5z"/>
	<path class="trn-rating-st2" d="M18.4,5.1c-0.5,0.8-0.6,1.7-0.3,2.6l1.6,4.8c0.3,1,1.2,1.8,2.2,2l1.7,0.4L19.8,3.1L18.4,5.1z"/>
	<path class="trn-rating-st2" d="M9.7,19.4L6,16.7c-0.7-0.5-1.6-0.7-2.4-0.5L1,16.8l9.9,7.2v-2.2C10.9,20.8,10.4,19.9,9.7,19.4z"/>
	<path class="trn-rating-st3" d="M17.8,16.7l-3.7,2.7c-0.8,0.6-1.2,1.5-1.2,2.4V24l9.9-7.2l-2.6-0.6C19.4,16,18.5,16.2,17.8,16.7z"/>
	<path class="trn-rating-st4" d="M15.9,10.2l-2.5,1.5l-1.5-3l-1.5,3l-2.5-1.5l1.5,4l2.5,1l2.5-1L15.9,10.2z"/>
	<polygon class="trn-rating-st5" points="11.9,15.2 11.9,8.7 13.4,11.7 15.9,10.2 14.4,14.2 	"/>
	<g class="trn-rating-st6">
		<path class="trn-rating-st4" d="M11.9,19.3L11.9,19.3l-6.8-4.9l0-0.1l2.6-8h8.4l2.7,8.1l-0.1,0.1L11.9,19.3z M5.3,14.3l6.6,4.7l6.6-4.7
			l-2.5-7.7h-8L5.3,14.3z"/>
	</g>
</g>
<rect class="trn-rating-st7" width="24" height="24"/>
</svg>
