<svg width="49" height="22" viewBox="0 0 49 22" fill="none" xmlns="http://www.w3.org/2000/svg">
<path d="M9.30518 21.6201C9.56341 21.816 9.88694 21.9288 10.2402 21.9288C10.6587 21.9288 11.0326 21.7715 11.3087 21.5073C11.5847 21.7685 11.9587 21.9288 12.3772 21.9288C12.7957 21.9288 13.1697 21.7715 13.4458 21.5073C13.7218 21.7685 14.0958 21.9288 14.5143 21.9288C14.9328 21.9288 15.3365 21.7566 15.6155 21.4746C16.0726 21.8041 16.6365 21.997 17.2598 21.997C17.8832 21.997 18.4441 21.8071 18.9012 21.4776C19.1802 21.7566 19.5661 21.9288 19.9995 21.9288C20.4625 21.9288 20.8662 21.7299 21.1511 21.4153C21.534 21.7715 22.0445 21.9911 22.6055 21.9911C23.5375 21.9911 24.333 21.3886 24.6209 20.5545C25.1908 21.442 26.1495 21.9881 27.1854 21.9881C27.9452 21.9881 28.6754 21.6913 29.2304 21.1927C29.5629 21.6201 30.0882 21.8664 30.7412 21.8664H32.255C32.7329 21.8664 33.1514 21.721 33.4719 21.4687C33.7984 21.7447 34.2169 21.9021 34.6533 21.9021C35.3508 21.9021 35.8999 21.5726 36.2086 21.0205C36.5202 21.5666 37.0783 21.9021 37.7669 21.9021C38.1616 21.9021 38.5267 21.7804 38.8206 21.5666C39.1203 21.7804 39.4795 21.9021 39.8594 21.9021C40.177 21.9021 40.4738 21.8219 40.735 21.6794C40.9933 21.8219 41.2871 21.9021 41.6017 21.9021C42.0232 21.9021 42.5634 21.7715 42.9938 21.2372H43.3055C43.5726 21.5726 44.0059 21.9021 44.7005 21.9021C45.7037 21.9021 46.52 21.0888 46.52 20.0885C46.52 19.8036 46.4576 19.5275 46.3359 19.2693L44.8162 16.0459C44.7539 15.9123 44.6767 15.7906 44.5877 15.6778C46.7426 14.7102 48.1821 12.487 48.1821 9.76228C48.1821 6.12925 45.5167 3.28575 42.1152 3.28575C40.7291 3.28575 39.4676 3.75769 38.4555 4.56206C38.0963 3.96249 37.4463 3.58257 36.6182 3.52617V2.85834C36.6182 1.35942 35.5971 0.273071 34.1902 0.273071C32.7833 0.273071 31.7623 1.35942 31.7623 2.85834V3.55289C31.0766 3.66865 30.5067 4.08419 30.1862 4.66298C29.1562 3.79628 27.8443 3.28575 26.4018 3.28575C25.5885 3.28575 24.7901 3.45197 24.0599 3.7755C23.6829 3.53508 23.2407 3.40448 22.7628 3.40448C21.6468 3.40448 20.7742 4.08716 20.4595 5.11711C20.3408 4.98948 20.2161 4.86778 20.0855 4.75202C19.02 3.80815 17.5923 3.28575 16.0726 3.28575C14.5291 3.28575 13.0926 3.86751 11.9736 4.82029C11.5669 1.97976 9.18349 0 6.00756 0H2.54668C1.02402 0 0 1.02402 0 2.54668V13.5378C0 14.2442 0.228549 14.8467 0.623314 15.292C0.246358 15.5769 0 16.0251 0 16.5475V20.3141C0 21.1986 0.691582 21.8902 1.57609 21.8902H2.95332C3.60038 21.8902 4.12574 21.7418 4.53535 21.4954C4.81436 21.7655 5.19428 21.9317 5.61873 21.9317C5.93632 21.9317 6.23017 21.8397 6.47356 21.6794C6.87426 21.8842 7.37588 22 7.93686 22C8.45332 22 8.92229 21.8635 9.30518 21.623V21.6201ZM32.5993 18.361C32.5548 18.3551 32.5103 18.3492 32.4657 18.3432V18.2928C32.5103 18.3165 32.5548 18.3403 32.5993 18.361Z" fill="#A1007D"/>
<path d="M26.4019 4.3098C25.464 4.3098 24.6151 4.57099 23.8938 5.01622C23.6445 4.64817 23.2468 4.42852 22.7659 4.42852C21.9437 4.42852 21.359 5.0548 21.359 5.99274V16.4199C21.359 17.3608 21.9467 17.9841 22.7659 17.9841C23.5851 17.9841 24.1758 17.3578 24.1758 16.4199V14.6657C24.8318 14.9952 25.5797 15.1822 26.4049 15.1822C29.4354 15.1822 31.4508 12.6978 31.4508 9.76527C31.4508 6.83273 29.379 4.3098 26.4049 4.3098H26.4019ZM26.4019 12.6028C24.8763 12.6028 24.1728 11.1158 24.1728 9.76527C24.1728 8.41476 24.8555 6.88913 26.4019 6.88913C27.9483 6.88913 28.631 8.41476 28.631 9.76527C28.631 11.1158 27.9275 12.6028 26.4019 12.6028ZM6.00769 1.02404H2.54681C1.57029 1.02404 1.02118 1.62955 1.02118 2.54968V13.5408C1.02118 14.5173 1.64746 15.0664 2.48745 15.0664C3.32744 15.0664 3.95372 14.5203 3.95372 13.5408V10.3322H6.12345C8.80369 10.3322 11.012 8.5513 11.012 5.69593C11.012 2.84056 8.88087 1.02107 6.00472 1.02107L6.00769 1.02404ZM5.94832 7.75286H3.95372V3.60634H5.94832C7.18011 3.60634 7.9637 4.50569 7.9637 5.67812C7.9637 6.85054 7.18011 7.74989 5.94832 7.74989V7.75286ZM36.3987 7.00785H35.5973V13.5022C35.5973 14.4401 35.0096 15.0664 34.1904 15.0664C33.3712 15.0664 32.7835 14.4401 32.7835 13.5022V7.00785H32.1572C31.3944 7.00785 30.9254 6.53888 30.9254 5.77607C30.9254 5.07261 31.4537 4.54428 32.1572 4.54428H32.7835V2.86133C32.7835 1.9234 33.3712 1.29711 34.1904 1.29711C35.0096 1.29711 35.5973 1.9234 35.5973 2.86133V4.54428H36.3987C37.1229 4.54428 37.7492 4.87671 37.7492 5.77607C37.7492 6.67542 37.1229 7.00785 36.3987 7.00785ZM42.1153 4.3098C39.1413 4.3098 37.0695 6.9099 37.0695 9.76527C37.0695 12.6206 39.0849 15.1822 42.1153 15.1822C45.1458 15.1822 47.1612 12.6978 47.1612 9.76527C47.1612 6.83273 45.0894 4.3098 42.1153 4.3098ZM42.1153 12.6028C40.5897 12.6028 39.8863 11.1158 39.8863 9.76527C39.8863 8.41476 40.5719 6.88913 42.1153 6.88913C43.6588 6.88913 44.3444 8.41476 44.3444 9.76527C44.3444 11.1158 43.641 12.6028 42.1153 12.6028ZM16.0727 4.3098C13.158 4.3098 10.6944 6.78227 10.6944 9.71185C10.6944 12.6414 13.2114 15.1851 16.1914 15.1851C16.6456 15.1851 17.1472 15.1109 17.723 14.9625C18.6817 14.7073 20.2044 13.9029 20.2044 12.8403C20.2044 12.1725 19.6701 11.6471 18.9875 11.6471C18.652 11.6471 18.376 11.8252 18.0287 12.0508C17.5776 12.3416 17.0136 12.7067 16.1647 12.7067C15.4227 12.7067 14.7756 12.4515 14.2473 11.9498L14.1642 11.8697C14.0811 11.7925 13.9802 11.6916 13.8792 11.5669L19.5722 9.05588C20.3409 8.72345 20.6288 8.39102 20.6288 7.833C20.6288 6.36376 18.8954 4.31276 16.0727 4.31276V4.3098ZM13.1966 9.80683C13.1817 9.4833 13.2144 9.13009 13.3272 8.74423C13.7219 7.53025 14.8676 6.64277 16.1677 6.64277C16.9246 6.64277 17.4915 6.91881 17.8536 7.46198C17.8922 7.52134 17.9516 7.62523 18.0109 7.73802L13.1966 9.80386V9.80683Z" fill="#FFF200"/>
<path d="M1.01807 16.5475C1.01807 16.1913 1.2852 15.9925 1.57311 15.9925H2.88207C3.72503 15.9925 4.25039 16.5119 4.25039 17.2658C4.25039 17.7645 3.90015 18.0613 3.66863 18.1978C4.26523 18.3136 4.64813 18.7855 4.64813 19.3969C4.64813 20.1716 4.14948 20.8692 2.95034 20.8692H1.57311C1.2852 20.8692 1.01807 20.6703 1.01807 20.3141V16.5475ZM2.12816 17.898H2.63571C2.95034 17.898 3.14327 17.7407 3.14327 17.438C3.14327 17.1352 2.95924 16.9779 2.63571 16.9779H2.12816V17.8951V17.898ZM2.12816 19.8837H2.82568C3.1967 19.8837 3.49648 19.7531 3.49648 19.3851C3.49648 19.017 3.15514 18.8864 2.82568 18.8864H2.12816V19.8867V19.8837ZM5.61575 15.5977C5.96599 15.5977 6.25093 15.8797 6.25093 16.2359C6.25093 16.592 5.96302 16.871 5.61575 16.871C5.26847 16.871 4.98056 16.5891 4.98056 16.2359C4.98056 15.8826 5.26847 15.5977 5.61575 15.5977ZM5.08148 17.7407C5.08148 17.432 5.30112 17.1857 5.61575 17.1857C5.93037 17.1857 6.15001 17.432 6.15001 17.7407V20.3557C6.15001 20.6644 5.93037 20.9107 5.61575 20.9107C5.30112 20.9107 5.08148 20.6644 5.08148 20.3557V17.7407ZM6.94845 19.7264C7.28385 19.7264 7.51537 20.0351 7.97543 20.0351C8.19508 20.0351 8.27819 19.9312 8.27819 19.8214C8.27819 19.6018 8.04667 19.581 7.45007 19.3346C6.90096 19.109 6.60711 18.9042 6.60711 18.3284C6.60711 17.7199 7.12654 17.1174 7.98434 17.1174C8.41472 17.1174 9.21612 17.3222 9.21612 17.8772C9.21612 18.1444 9.02319 18.3284 8.7709 18.3284C8.56016 18.3284 8.24257 18.0613 7.91607 18.0613C7.7736 18.0613 7.6341 18.1295 7.6341 18.2869C7.6341 18.7054 9.30517 18.6074 9.30517 19.7798C9.30517 20.5338 8.66701 20.979 7.93685 20.979C7.26604 20.979 6.51213 20.7118 6.51213 20.2399C6.51213 19.9372 6.711 19.7264 6.95142 19.7264H6.94845ZM9.70587 17.7407C9.70587 17.432 9.92551 17.1857 10.2401 17.1857C10.5281 17.1857 10.7061 17.3697 10.7744 17.527C10.9466 17.2599 11.3087 17.1174 11.6916 17.1174C12.0003 17.1174 12.4247 17.2272 12.6829 17.5567C12.9352 17.3638 13.2588 17.1174 13.7159 17.1174C14.4549 17.1174 15.0426 17.5003 15.0426 18.3759V20.3557C15.0426 20.6644 14.823 20.9107 14.5084 20.9107C14.1937 20.9107 13.9741 20.6644 13.9741 20.3557V18.6638C13.9741 18.3284 13.7901 18.0197 13.4398 18.0197C13.0896 18.0197 12.9055 18.3284 12.9055 18.6638V20.3557C12.9055 20.6644 12.6859 20.9107 12.3713 20.9107C12.0567 20.9107 11.837 20.6644 11.837 20.3557V18.6638C11.837 18.3284 11.653 18.0197 11.3027 18.0197C10.9525 18.0197 10.7685 18.3284 10.7685 18.6638V20.3557C10.7685 20.6644 10.5488 20.9107 10.2342 20.9107C9.91958 20.9107 9.69993 20.6644 9.69993 20.3557V17.7407H9.70587ZM19.0585 19.0467C19.0585 20.1212 18.3402 20.976 17.2569 20.976C16.1735 20.976 15.4552 20.1212 15.4552 19.0467C15.4552 17.9722 16.1735 17.1174 17.2569 17.1174C18.3402 17.1174 19.0585 17.9722 19.0585 19.0467ZM16.5237 19.0467C16.5237 19.5394 16.7849 19.949 17.2569 19.949C17.7288 19.949 17.99 19.5394 17.99 19.0467C17.99 18.554 17.7288 18.1444 17.2569 18.1444C16.7849 18.1444 16.5237 18.554 16.5237 19.0467ZM19.4622 16.1498C19.4622 15.8411 19.6819 15.5947 19.9965 15.5947C20.3111 15.5947 20.5307 15.8411 20.5307 16.1498V20.3527C20.5307 20.6614 20.3111 20.9077 19.9965 20.9077C19.6819 20.9077 19.4622 20.6614 19.4622 20.3527V16.1498Z" fill="#FFF200"/>
<path d="M22.8994 20.4031C22.8697 20.4031 22.84 20.3853 22.8133 20.3675L22.466 20.0826V20.2636C22.466 20.3408 22.4215 20.4031 22.3413 20.4031C22.2612 20.4031 22.2167 20.3378 22.2167 20.2636V19.4504C22.2167 19.3583 22.2701 19.3049 22.3621 19.3049H22.558C22.6203 19.3049 22.6827 19.3079 22.742 19.3257C22.9023 19.3702 23.0151 19.5364 23.0151 19.6997C23.0151 19.8629 22.9142 19.9698 22.7688 20.0232C22.8311 20.0677 22.8934 20.1122 22.9557 20.1568C22.9943 20.1865 23.027 20.2191 23.027 20.2725C23.027 20.3408 22.9706 20.3972 22.9023 20.3972L22.8994 20.4031ZM22.5966 19.5424H22.469V19.8689H22.5758C22.6055 19.8689 22.6382 19.8689 22.6678 19.86C22.7331 19.8392 22.7777 19.7739 22.7777 19.7056C22.7777 19.6017 22.6975 19.5424 22.5996 19.5424H22.5966Z" fill="#FFF200"/>
<path d="M22.6025 20.9731C21.9881 20.9731 21.4865 20.4714 21.4865 19.857C21.4865 19.2426 21.9881 18.741 22.6025 18.741C23.2169 18.741 23.7186 19.2426 23.7186 19.857C23.7186 20.4714 23.2169 20.9731 22.6025 20.9731ZM22.6025 19.017C22.1395 19.017 21.7626 19.394 21.7626 19.857C21.7626 20.3201 22.1395 20.697 22.6025 20.697C23.0656 20.697 23.4425 20.3201 23.4425 19.857C23.4425 19.394 23.0656 19.017 22.6025 19.017Z" fill="#FFF200"/>
<path d="M29.2096 18.7499C29.2096 19.1239 29.1592 19.5157 28.987 19.854C28.6487 20.5159 27.9333 20.9641 27.1854 20.9641C26.4374 20.9641 25.7428 20.5159 25.3896 19.854C25.1819 19.4563 25.1581 19.1892 25.1581 18.7499V16.9126C25.1581 16.6751 25.1789 16.503 25.3303 16.3071C25.4816 16.1201 25.7191 15.9984 25.9565 15.9984C26.1732 15.9984 26.3899 16.0934 26.5413 16.2507C26.7223 16.4466 26.749 16.684 26.749 16.9363V18.833C26.749 19.1209 26.8648 19.3821 27.1883 19.3821C27.5119 19.3821 27.6128 19.1298 27.6128 18.8567V16.9393C27.6128 16.6722 27.6068 16.5208 27.7849 16.3041C27.9363 16.1231 28.1589 16.0014 28.3993 16.0014C28.6398 16.0014 28.8683 16.1171 29.0197 16.2893C29.2007 16.497 29.2067 16.7226 29.2067 16.9898V18.7558L29.2096 18.7499ZM32.252 20.8424H30.7383C30.1179 20.8424 29.8508 20.4833 29.8508 19.8897V16.8888C29.8508 16.3991 30.1179 15.9954 30.6433 15.9954C30.8748 15.9954 31.1122 16.0963 31.2577 16.2833C31.4447 16.5208 31.4387 16.7879 31.4387 17.0758V19.3554H32.2253C32.6794 19.3554 33.092 19.5869 33.092 20.0915C33.092 20.5961 32.7239 20.8424 32.255 20.8424H32.252ZM36.5707 17.1441C36.3184 17.5834 35.8791 17.5122 35.4458 17.5122V19.9075C35.4458 20.4269 35.238 20.881 34.6533 20.881C34.395 20.881 34.1546 20.7593 34.0032 20.5486C33.8578 20.3467 33.8519 20.1598 33.8519 19.9223V17.5151H33.4333C32.9851 17.5151 32.6171 17.2569 32.6171 16.779C32.6171 16.5119 32.7833 16.2299 33.0267 16.1142C33.1929 16.034 33.4363 16.034 33.6174 16.034H35.8672C36.3006 16.034 36.6686 16.316 36.6686 16.7701C36.6686 16.9007 36.633 17.0283 36.5677 17.1441H36.5707ZM39.8564 20.8781C39.5834 20.8781 39.3519 20.7415 39.2064 20.51L38.5445 19.4207V20.0766C38.5445 20.5159 38.2121 20.8781 37.7669 20.8781C37.197 20.8781 36.9595 20.4239 36.9595 19.9104V16.9482C36.9595 16.6662 37.004 16.4436 37.2177 16.2418C37.4404 16.0399 37.657 16.034 37.9449 16.034H38.687C39.0461 16.034 39.3073 16.0548 39.6398 16.2062C40.2453 16.4792 40.6341 17.0996 40.6341 17.7645C40.6341 18.269 40.453 18.6222 40.1236 18.9903C40.2453 19.1921 40.3759 19.388 40.4976 19.5899C40.5925 19.7472 40.6489 19.9223 40.6489 20.1093C40.6489 20.5486 40.2898 20.881 39.8564 20.881V20.8781ZM38.5415 17.5033V18.0227H38.7137C38.8859 18.0227 39.0728 17.9871 39.0728 17.7704C39.0728 17.4884 38.7345 17.5122 38.5386 17.5033H38.5415ZM44.6975 20.8781C44.2374 20.8781 44.0564 20.5901 43.8813 20.2132H42.4091C42.2517 20.5872 42.041 20.8781 41.5958 20.8781C41.1506 20.8781 40.8092 20.5248 40.8092 20.0856C40.8092 19.9401 40.8389 19.7976 40.9042 19.667L42.412 16.4733C42.5486 16.1854 42.8157 15.9984 43.1392 15.9984C43.4628 15.9984 43.7447 16.1854 43.8813 16.4822L45.4039 19.7116C45.4603 19.8333 45.49 19.9639 45.49 20.0945C45.49 20.5278 45.1309 20.881 44.6975 20.881V20.8781ZM43.1392 18.4916L42.8929 19.0764H43.3826L43.1363 18.4916H43.1392Z" fill="white"/>
</svg>
